<svg xmlns="http://www.w3.org/2000/svg" xmlns:xlink="http://www.w3.org/1999/xlink" width="512" zoomAndPan="magnify" viewBox="0 0 384 383.999986" height="512" preserveAspectRatio="xMidYMid meet" version="1.0"><defs><clipPath id="3f10541e88"><path d="M 38.738281 21 L 345.554688 21 L 345.554688 363.25 L 38.738281 363.25 Z M 38.738281 21 " clip-rule="nonzero"/></clipPath><clipPath id="f3e75245ea"><path d="M 38.398438 149 L 104 149 L 104 177 L 38.398438 177 Z M 38.398438 149 " clip-rule="nonzero"/></clipPath><clipPath id="0ce25b60f2"><path d="M 280.832031 149.558594 L 345.554688 149.558594 L 345.554688 177 L 280.832031 177 Z M 280.832031 149.558594 " clip-rule="nonzero"/></clipPath><clipPath id="6e36002185"><path d="M 94.90625 341.664062 L 289.816406 341.664062 L 289.816406 363.25 L 94.90625 363.25 Z M 94.90625 341.664062 " clip-rule="nonzero"/></clipPath><clipPath id="7ab17f4a4e"><path d="M 139 20.710938 L 246 20.710938 L 246 40 L 139 40 Z M 139 20.710938 " clip-rule="nonzero"/></clipPath></defs><path fill="#ffffff" d="M 281.683594 155.585938 C 281.683594 155.585938 281.503906 155.230469 281.214844 154.546875 C 280.945312 153.859375 280.523438 152.847656 280.101562 151.527344 C 279.675781 150.203125 279.195312 148.585938 278.765625 146.695312 C 278.332031 144.8125 277.914062 142.660156 277.597656 140.296875 C 277.417969 139.113281 277.316406 137.875 277.179688 136.59375 C 277.113281 135.953125 277.082031 135.296875 277.039062 134.632812 C 276.992188 133.96875 276.949219 133.292969 276.929688 132.609375 C 276.863281 131.238281 276.855469 129.828125 276.867188 128.390625 C 276.847656 126.945312 276.957031 125.480469 277.011719 123.984375 C 277.105469 122.488281 277.222656 120.96875 277.398438 119.4375 C 277.578125 117.90625 277.742188 116.347656 278.023438 114.800781 C 278.148438 114.027344 278.277344 113.246094 278.410156 112.464844 C 278.558594 111.683594 278.714844 110.90625 278.878906 110.125 C 279.183594 108.5625 279.597656 107.015625 279.96875 105.460938 C 280.359375 103.914062 280.851562 102.390625 281.289062 100.859375 C 281.753906 99.339844 282.308594 97.851562 282.8125 96.363281 C 283.363281 94.894531 283.9375 93.445312 284.515625 92.019531 C 285.136719 90.613281 285.742188 89.21875 286.375 87.867188 C 287.035156 86.527344 287.683594 85.210938 288.351562 83.941406 C 288.671875 83.300781 289.027344 82.6875 289.371094 82.078125 C 289.71875 81.46875 290.0625 80.867188 290.402344 80.273438 C 291.074219 79.089844 291.78125 77.964844 292.480469 76.890625 C 292.828125 76.355469 293.171875 75.824219 293.511719 75.308594 C 293.84375 74.789062 294.171875 74.28125 294.535156 73.808594 C 295.925781 71.878906 297.179688 70.109375 298.425781 68.636719 C 299.65625 67.148438 300.703125 65.851562 301.667969 64.851562 C 302.601562 63.835938 303.371094 63.066406 303.878906 62.53125 C 304.402344 62.007812 304.679688 61.730469 304.679688 61.730469 C 304.679688 61.730469 304.519531 62.09375 304.21875 62.769531 C 303.90625 63.4375 303.46875 64.429688 302.867188 65.65625 C 302.253906 66.875 301.597656 68.402344 300.785156 70.109375 C 299.953125 71.800781 299.128906 73.765625 298.164062 75.859375 C 297.671875 76.898438 297.230469 78.019531 296.738281 79.152344 C 296.5 79.726562 296.242188 80.300781 295.984375 80.882812 C 295.722656 81.464844 295.503906 82.078125 295.253906 82.683594 C 294.78125 83.910156 294.21875 85.128906 293.75 86.421875 C 293.28125 87.714844 292.746094 89.007812 292.257812 90.34375 C 291.796875 91.695312 291.296875 93.046875 290.804688 94.421875 C 290.578125 95.113281 290.355469 95.8125 290.125 96.515625 C 289.890625 97.214844 289.652344 97.917969 289.417969 98.621094 C 288.988281 100.046875 288.554688 101.480469 288.121094 102.921875 C 287.726562 104.371094 287.285156 105.816406 286.929688 107.28125 C 286.558594 108.742188 286.148438 110.195312 285.84375 111.664062 C 285.683594 112.398438 285.511719 113.128906 285.335938 113.855469 C 285.183594 114.585938 285.03125 115.316406 284.882812 116.042969 C 284.570312 117.496094 284.320312 118.945312 284.046875 120.378906 C 283.902344 121.09375 283.804688 121.808594 283.691406 122.519531 C 283.582031 123.230469 283.441406 123.933594 283.339844 124.636719 C 282.945312 127.441406 282.570312 130.164062 282.324219 132.761719 C 282.0625 135.363281 281.863281 137.832031 281.746094 140.121094 C 281.605469 142.410156 281.550781 144.519531 281.519531 146.398438 C 281.472656 148.277344 281.503906 149.921875 281.519531 151.285156 C 281.550781 152.640625 281.574219 153.71875 281.617188 154.453125 C 281.660156 155.191406 281.683594 155.585938 281.683594 155.585938 " fill-opacity="1" fill-rule="nonzero"/><g clip-path="url(#3f10541e88)"><path fill="#000000" d="M 286.804688 175.761719 C 287.132812 176.480469 287.867188 176.921875 288.65625 176.863281 C 295.328125 176.355469 326.101562 173.210938 344.085938 157.503906 C 345.472656 156.292969 345.921875 154.324219 345.25 152.609375 L 313.183594 71.046875 C 311.59375 67 308.570312 63.683594 304.679688 61.730469 C 289.125 53.921875 248.570312 33.296875 244.910156 28.722656 C 242.070312 25.171875 239.226562 22.953125 237.5 21.792969 C 236.53125 21.140625 235.332031 20.957031 234.210938 21.296875 C 229.113281 22.851562 212.558594 27.359375 192.148438 27.570312 C 171.734375 27.359375 155.179688 22.851562 150.082031 21.296875 C 148.960938 20.957031 147.761719 21.140625 146.792969 21.792969 C 145.066406 22.953125 142.222656 25.171875 139.382812 28.722656 C 135.722656 33.296875 95.167969 53.921875 79.613281 61.730469 C 75.722656 63.683594 72.699219 67 71.109375 71.046875 L 39.042969 152.609375 C 38.371094 154.324219 38.820312 156.292969 40.207031 157.503906 C 58.191406 173.210938 88.964844 176.355469 95.636719 176.863281 C 96.425781 176.921875 97.160156 176.480469 97.488281 175.761719 C 100.167969 169.894531 102.609375 162.957031 102.609375 162.957031 C 106.058594 170.890625 96.625 320.925781 94.933594 347.304688 C 94.789062 349.589844 96.292969 351.667969 98.515625 352.226562 C 132.242188 360.664062 164.332031 363.375 192.148438 363.242188 C 219.964844 363.375 252.050781 360.664062 285.777344 352.226562 C 288 351.667969 289.503906 349.589844 289.359375 347.304688 C 287.671875 320.925781 278.234375 170.890625 281.683594 162.957031 C 281.683594 162.957031 284.125 169.894531 286.804688 175.761719 " fill-opacity="1" fill-rule="nonzero"/></g><g clip-path="url(#f3e75245ea)"><path fill="#ffffff" d="M 97.488281 175.761719 C 100.167969 169.894531 102.609375 162.957031 102.609375 162.957031 C 103.042969 163.949219 103.269531 167.15625 103.339844 172.0625 C 103.429688 163.023438 103.230469 157.007812 102.609375 155.585938 C 102.609375 155.585938 100.167969 162.519531 97.488281 168.390625 C 97.160156 169.109375 96.425781 169.546875 95.636719 169.488281 C 88.964844 168.980469 58.191406 165.839844 40.207031 150.128906 C 40.160156 150.085938 40.121094 150.035156 40.074219 149.992188 L 39.042969 152.609375 C 38.371094 154.324219 38.820312 156.292969 40.207031 157.503906 C 58.191406 173.210938 88.964844 176.355469 95.636719 176.863281 C 96.425781 176.921875 97.160156 176.480469 97.488281 175.761719 " fill-opacity="1" fill-rule="nonzero"/></g><g clip-path="url(#0ce25b60f2)"><path fill="#ffffff" d="M 344.21875 149.992188 C 344.175781 150.035156 344.132812 150.085938 344.085938 150.128906 C 326.101562 165.839844 295.328125 168.980469 288.65625 169.488281 C 287.867188 169.546875 287.132812 169.109375 286.804688 168.390625 C 284.125 162.519531 281.683594 155.585938 281.683594 155.585938 C 281.0625 157.007812 280.863281 163.023438 280.953125 172.0625 C 281.023438 167.15625 281.253906 163.949219 281.683594 162.957031 C 281.683594 162.957031 284.125 169.894531 286.804688 175.761719 C 287.132812 176.480469 287.867188 176.921875 288.65625 176.863281 C 295.328125 176.355469 326.101562 173.210938 344.085938 157.503906 C 345.472656 156.292969 345.921875 154.324219 345.25 152.609375 L 344.21875 149.992188 " fill-opacity="1" fill-rule="nonzero"/></g><g clip-path="url(#6e36002185)"><path fill="#ffffff" d="M 285.777344 344.855469 C 252.050781 353.292969 219.964844 356.003906 192.148438 355.871094 C 164.332031 356.003906 132.242188 353.292969 98.515625 344.855469 C 96.992188 344.472656 95.820312 343.367188 95.273438 341.976562 C 95.140625 344.082031 95.027344 345.882812 94.933594 347.304688 C 94.789062 349.589844 96.292969 351.667969 98.515625 352.226562 C 132.242188 360.664062 164.332031 363.375 192.148438 363.242188 C 219.964844 363.375 252.050781 360.664062 285.777344 352.226562 C 288 351.667969 289.503906 349.589844 289.359375 347.304688 C 289.265625 345.882812 289.152344 344.082031 289.019531 341.976562 C 288.472656 343.367188 287.300781 344.472656 285.777344 344.855469 " fill-opacity="1" fill-rule="nonzero"/></g><g clip-path="url(#7ab17f4a4e)"><path fill="#ffffff" d="M 150.066406 33.574219 C 155.160156 35.125 171.714844 39.636719 192.128906 39.847656 C 212.539062 39.636719 229.097656 35.125 234.191406 33.574219 C 235.3125 33.234375 246.429688 30.4375 244.894531 28.523438 C 242.050781 24.96875 239.210938 22.753906 237.484375 21.589844 C 236.511719 20.9375 235.3125 20.757812 234.191406 21.097656 C 229.097656 22.648438 212.539062 27.160156 192.128906 27.371094 C 171.714844 27.160156 155.160156 22.648438 150.066406 21.097656 C 148.945312 20.757812 147.746094 20.9375 146.773438 21.589844 C 145.046875 22.753906 142.207031 24.96875 139.363281 28.523438 C 138.050781 30.164062 148.945312 33.234375 150.066406 33.574219 " fill-opacity="1" fill-rule="nonzero"/></g><path fill="#ffffff" d="M 102.609375 155.585938 C 102.609375 155.585938 102.660156 155.195312 102.753906 154.472656 C 102.84375 153.746094 102.9375 152.683594 103.050781 151.332031 C 103.152344 149.976562 103.25 148.335938 103.3125 146.457031 C 103.371094 144.578125 103.390625 142.460938 103.355469 140.15625 C 103.324219 137.847656 103.191406 135.359375 103.007812 132.734375 C 102.832031 130.109375 102.519531 127.351562 102.171875 124.507812 C 102.078125 123.800781 101.953125 123.085938 101.855469 122.367188 C 101.75 121.648438 101.664062 120.921875 101.527344 120.199219 C 101.269531 118.746094 101.039062 117.273438 100.730469 115.804688 C 100.585938 115.066406 100.4375 114.328125 100.289062 113.589844 C 100.121094 112.847656 99.957031 112.109375 99.789062 111.371094 C 99.484375 109.878906 99.070312 108.410156 98.703125 106.933594 C 98.339844 105.449219 97.890625 103.988281 97.488281 102.523438 C 97.039062 101.070312 96.589844 99.625 96.148438 98.1875 C 95.65625 96.769531 95.167969 95.359375 94.699219 93.957031 C 94.183594 92.574219 93.671875 91.210938 93.167969 89.867188 C 92.628906 88.535156 92.101562 87.226562 91.582031 85.945312 C 91.074219 84.65625 90.484375 83.4375 89.972656 82.222656 C 89.703125 81.617188 89.464844 81.011719 89.183594 80.433594 C 88.910156 79.851562 88.640625 79.28125 88.375 78.71875 C 87.84375 77.597656 87.378906 76.480469 86.839844 75.457031 C 85.773438 73.40625 84.882812 71.46875 83.96875 69.820312 C 83.066406 68.164062 82.347656 66.671875 81.660156 65.5 C 80.988281 64.320312 80.492188 63.367188 80.140625 62.722656 C 79.796875 62.078125 79.613281 61.730469 79.613281 61.730469 C 79.613281 61.730469 79.867188 62.023438 80.347656 62.578125 C 80.820312 63.140625 81.527344 63.949219 82.390625 65.011719 C 83.28125 66.050781 84.273438 67.386719 85.40625 68.921875 C 86.574219 70.4375 87.757812 72.238281 89.050781 74.207031 C 89.71875 75.179688 90.320312 76.25 90.992188 77.324219 C 91.65625 78.414062 92.324219 79.542969 92.957031 80.738281 C 93.597656 81.929688 94.28125 83.144531 94.90625 84.417969 C 95.53125 85.695312 96.164062 87.003906 96.789062 88.34375 C 97.375 89.699219 97.96875 91.082031 98.570312 92.480469 C 99.121094 93.902344 99.675781 95.339844 100.210938 96.800781 C 100.703125 98.273438 101.230469 99.75 101.6875 101.257812 C 102.117188 102.773438 102.601562 104.277344 102.984375 105.8125 C 103.355469 107.347656 103.769531 108.875 104.074219 110.421875 C 104.234375 111.191406 104.394531 111.964844 104.554688 112.730469 C 104.6875 113.503906 104.816406 114.273438 104.953125 115.042969 C 105.488281 118.105469 105.820312 121.15625 106.066406 124.109375 C 106.269531 127.0625 106.375 129.925781 106.324219 132.636719 C 106.324219 133.316406 106.300781 133.984375 106.273438 134.644531 C 106.246094 135.300781 106.234375 135.949219 106.191406 136.585938 C 106.089844 137.859375 106.015625 139.085938 105.882812 140.261719 C 105.675781 142.613281 105.332031 144.753906 104.988281 146.640625 C 104.667969 148.527344 104.253906 150.148438 103.917969 151.476562 C 103.578125 152.808594 103.226562 153.832031 103 154.53125 C 102.761719 155.222656 102.609375 155.585938 102.609375 155.585938 " fill-opacity="1" fill-rule="nonzero"/><path fill="#ffffff" d="M 281.683594 155.585938 C 281.683594 155.585938 281.53125 155.222656 281.292969 154.53125 C 281.066406 153.832031 280.71875 152.808594 280.375 151.476562 C 280.042969 150.148438 279.625 148.527344 279.304688 146.640625 C 278.960938 144.753906 278.617188 142.613281 278.410156 140.261719 C 278.277344 139.085938 278.203125 137.859375 278.105469 136.585938 C 278.058594 135.949219 278.046875 135.300781 278.019531 134.644531 C 277.992188 133.984375 277.96875 133.316406 277.96875 132.636719 C 277.917969 129.925781 278.023438 127.0625 278.230469 124.109375 C 278.472656 121.15625 278.804688 118.105469 279.339844 115.042969 C 279.476562 114.273438 279.605469 113.503906 279.742188 112.730469 C 279.902344 111.964844 280.058594 111.191406 280.21875 110.421875 C 280.523438 108.875 280.9375 107.347656 281.308594 105.8125 C 281.691406 104.277344 282.175781 102.773438 282.605469 101.257812 C 283.0625 99.75 283.59375 98.273438 284.082031 96.800781 C 284.617188 95.339844 285.171875 93.902344 285.722656 92.480469 C 286.328125 91.082031 286.917969 89.699219 287.503906 88.34375 C 288.132812 87.003906 288.761719 85.695312 289.386719 84.417969 C 290.011719 83.144531 290.695312 81.929688 291.335938 80.738281 C 291.96875 79.542969 292.636719 78.414062 293.300781 77.324219 C 293.972656 76.25 294.574219 75.179688 295.242188 74.207031 C 296.535156 72.238281 297.71875 70.4375 298.886719 68.921875 C 300.019531 67.386719 301.011719 66.050781 301.902344 65.011719 C 302.765625 63.949219 303.472656 63.140625 303.945312 62.578125 C 304.425781 62.023438 304.679688 61.730469 304.679688 61.730469 C 304.679688 61.730469 304.496094 62.078125 304.152344 62.722656 C 303.800781 63.367188 303.304688 64.320312 302.632812 65.5 C 301.945312 66.671875 301.226562 68.164062 300.324219 69.820312 C 299.410156 71.46875 298.519531 73.40625 297.453125 75.457031 C 296.917969 76.480469 296.449219 77.597656 295.917969 78.71875 C 295.652344 79.28125 295.382812 79.851562 295.109375 80.433594 C 294.828125 81.011719 294.589844 81.617188 294.320312 82.222656 C 293.808594 83.4375 293.21875 84.65625 292.710938 85.945312 C 292.191406 87.226562 291.664062 88.535156 291.125 89.867188 C 290.621094 91.210938 290.109375 92.574219 289.59375 93.957031 C 289.128906 95.359375 288.636719 96.769531 288.144531 98.1875 C 287.703125 99.625 287.253906 101.070312 286.804688 102.523438 C 286.402344 103.988281 285.953125 105.449219 285.589844 106.933594 C 285.222656 108.410156 284.808594 109.878906 284.503906 111.371094 C 284.335938 112.109375 284.171875 112.847656 284.003906 113.589844 C 283.855469 114.328125 283.707031 115.066406 283.5625 115.804688 C 283.253906 117.273438 283.023438 118.746094 282.765625 120.199219 C 282.628906 120.921875 282.542969 121.648438 282.4375 122.367188 C 282.339844 123.085938 282.214844 123.800781 282.125 124.507812 C 281.773438 127.351562 281.460938 130.109375 281.289062 132.734375 C 281.101562 135.359375 280.96875 137.847656 280.9375 140.15625 C 280.902344 142.460938 280.921875 144.578125 280.980469 146.457031 C 281.042969 148.335938 281.140625 149.976562 281.242188 151.332031 C 281.355469 152.683594 281.449219 153.746094 281.539062 154.472656 C 281.632812 155.195312 281.683594 155.585938 281.683594 155.585938 " fill-opacity="1" fill-rule="nonzero"/></svg>