<?xml version="1.0" encoding="UTF-8"?>
<svg id="Layer_1" data-name="Layer 1" xmlns="http://www.w3.org/2000/svg" viewBox="0 0 274.72 182.92">
  <defs>
    <style>
      .cls-1 {
        fill: #fff;
        stroke: #fff;
        stroke-miterlimit: 10;
      }
    </style>
  </defs>
  <g>
    <path class="cls-1" d="M75.27,37.73v90.02s31.08-18.07,63.67,0V36.72s-18.79-19.72-63.67,1.01Z"/>
    <path class="cls-1" d="M84.85,129.15s40.11-.59,47.12,1.52c0,0,3.04-1.18-2.2-2.53s-40.53-2.2-41.63-1.44-1.94-.25-3.29,2.45Z"/>
    <path class="cls-1" d="M70.07,42.42v92.39h68.87v8.28H63.49V46.64s1.39-3.72,6.59-4.22Z"/>
  </g>
  <g>
    <path class="cls-1" d="M202.61,37.73v90.02s-31.08-18.07-63.67,0v-46.49s0-44.55,0-44.55c0,0,18.79-19.72,63.67,1.01Z"/>
    <path class="cls-1" d="M193.03,129.15s-40.11-.59-47.12,1.52c0,0-3.04-1.18,2.2-2.53s40.53-2.2,41.63-1.44,1.94-.25,3.29,2.45Z"/>
    <path class="cls-1" d="M207.81,42.42v92.39h-68.87s0,8.28,0,8.28h75.45s0-96.44,0-96.44c0,0-1.39-3.72-6.59-4.22Z"/>
  </g>
</svg>