<?xml version="1.0" encoding="UTF-8"?>
<svg id="Layer_1" data-name="Layer 1" xmlns="http://www.w3.org/2000/svg" viewBox="0 0 274.72 182.92">
  <defs>
    <style>
      .cls-1 {
        fill: #fff;
      }
    </style>
  </defs>
  <rect class="cls-1" x="162.91" y="102.43" width="44.85" height="11.21" rx="5.61" ry="5.61" transform="translate(202.85 321.85) rotate(-124.92)"/>
  <path class="cls-1" d="M181.71,118.05s-2.24,11.3,2.74,18.36h11.96s-14.7-18.36-14.7-18.36Z"/>
  <g>
    <rect class="cls-1" x="99.02" y="47.11" width="44.85" height="11.21" rx="5.61" ry="5.61" transform="translate(8.7 122.12) rotate(-55.08)"/>
    <rect class="cls-1" x="66.96" y="102.43" width="44.85" height="11.21" rx="5.61" ry="5.61" transform="translate(-50.36 119.48) rotate(-55.08)"/>
    <path class="cls-1" d="M115.85,47.03l23.09-31.48v-7.72s-3.49-2.82-7.48,2.66c-3.99,5.48-20.76,25.75-18.52,32.97.01.33.09,1.32.83,2.24.77.96,1.76,1.25,2.08,1.33Z"/>
    <path class="cls-1" d="M112.32,54.05l-26.41,44.44s-4.98-3.82,1.66-17.61c6.64-13.79,10.8-23.84,24.75-26.83Z"/>
    <path class="cls-1" d="M87.44,151.52s-35.38,2.87-28.41-6.98c6.98-9.84,21.68-36.51,21.68-36.51-5.01,1.57-8.62,3.68-10.87,5.2-15.34,10.36-18.35,27.74-18.78,30.52-.43,2.74-.52,5.01-.54,6.44.29,1.51.99,3.92,2.96,5.88.96.96,2.86,3.41,9.91,3.29,14.58-.25,16.07,1.74,24.05-7.85Z"/>
    <rect class="cls-1" x="130.85" y="47.11" width="44.85" height="11.21" rx="5.61" ry="5.61" transform="translate(197.79 208.58) rotate(-124.92)"/>
    <path class="cls-1" d="M158.87,47.03l-23.09-31.48v-7.72s3.49-2.82,7.48,2.66c3.99,5.48,20.76,25.75,18.52,32.97-.01.33-.09,1.32-.83,2.24-.77.96-1.76,1.25-2.08,1.33Z"/>
    <path class="cls-1" d="M162.4,54.05l26.41,44.44s4.98-3.82-1.66-17.61-10.8-23.84-24.75-26.83Z"/>
    <path class="cls-1" d="M187.28,151.52s35.38,2.87,28.41-6.98c-6.98-9.84-21.68-36.51-21.68-36.51,5.01,1.57,8.62,3.68,10.87,5.2,15.34,10.36,18.35,27.74,18.78,30.52.43,2.74.52,5.01.54,6.44-.29,1.51-.99,3.92-2.96,5.88-.96.96-2.86,3.41-9.91,3.29-14.58-.25-16.07,1.74-24.05-7.85Z"/>
    <polygon class="cls-1" points="143.47 78.39 122.79 108.03 134.5 107.42 129.51 129.22 150.32 99.19 138.04 99.44 143.47 78.39"/>
    <path class="cls-1" d="M121.66,65.43l-22.55,41.49s5.36,2.99,14.08-7.48c8.72-10.47,11.09-20.31,8.47-34.01Z"/>
    <path class="cls-1" d="M93.13,118.05s2.24,11.3-2.74,18.36h-11.96l14.7-18.36Z"/>
    <path class="cls-1" d="M77.35,138.65l42.28,1.25s12.21,6.31,1.33,11.38l-44.02-1.74s-5.48-4.15.42-10.88Z"/>
    <path class="cls-1" d="M153.18,65.43l22.55,41.49s-5.36,2.99-14.08-7.48-11.09-20.31-8.47-34.01Z"/>
    <path class="cls-1" d="M197.5,138.65l-42.28,1.25s-12.21,6.31-1.33,11.38l44.02-1.74s5.48-4.15-.42-10.88Z"/>
    <path class="cls-1" d="M119.01,136.94s7.27,8.72,17.55,6.98c10.28-1.74,10.86-.66,20.41-5.98,0,0-4.21-2.49-7.59-2.66s-27.46,0-27.46,0l-2.91,1.66Z"/>
    <path class="cls-1" d="M110.87,152.31l51.5-.66s.83,11.71-14.62,10.38c-15.45-1.33-28.74.11-28.74.11,0,0-8.22-5.09-8.14-9.41"/>
    <path class="cls-1" d="M136.68,42.26s-7.02,10.96-6.71,11.09,5.86,4.67,8.35,3.55,6.73-4.98,6.73-4.98l-8.37-9.66Z"/>
  </g>
</svg>