<?xml version="1.0" encoding="UTF-8"?>
<svg id="Layer_1" data-name="Layer 1" xmlns="http://www.w3.org/2000/svg" viewBox="0 0 274.72 182.92">
  <defs>
    <style>
      .cls-1 {
        fill: #fff;
      }
    </style>
  </defs>
  <path class="cls-1" d="M71.8,154.02h132.2s-58.4-4.8-132.2,0Z"/>
  <path class="cls-1" d="M225.24,48.79c0-7.36-5.67-13.33-12.66-13.33s-12.66,5.97-12.66,13.33,5.24,12.86,11.86,13.29c-9.33,13.06-41.56,53.37-60.11,16.08l-11.72-33.85c6.14-.92,10.87-6.46,10.87-13.18,0-7.36-5.67-13.33-12.66-13.33s-12.66,5.97-12.66,13.33c0,6.71,4.71,12.25,10.83,13.18-5.82,18.83-26.71,75.82-55.77,35.4l-15.58-17.93c5.62-1.36,9.82-6.65,9.82-12.98,0-7.36-5.67-13.33-12.66-13.33s-12.66,5.97-12.66,13.33,5.67,13.33,12.66,13.33c.81,0,1.6-.09,2.37-.24l5.38,62.74-.47-9.5,1.66-4.25,10.6,11.1-5.35,6.85-4.75-5.8-1.68,1.61,1.85,21.55,133.6-1.32,1.87-17.84-2.46,2.46-6.79-8.97,5.96-8.34,4.33,4.88,5.75-55.01c6.32-.74,11.24-6.39,11.24-13.24ZM102.38,130.13l-6.96-10.68,6.96-8.58,8.28,11.07-8.28,8.2ZM138.48,131.87l-13.5-16.4,13.5-16.15,12.34,16.27-12.34,16.27ZM171.52,129.47l-6.79-8.97,5.96-8.34,8.53,9.61-7.7,7.7Z"/>
</svg>